Format : AVI
Format/Info : Audio Video Interleave
File size : 1.21 GiB
Duration : 1h 58mn
Overall bit rate : 1 469 Kbps
Writing library : VirtualDub build 32839/release

Video
ID : 0
Format : MPEG-4 Visual
Format profile : Advanced Simple@L5
Format settings, BVOP : Yes
Format settings, QPel : No
Format settings, GMC : No warppoints
Format settings, Matrix : Custom
Codec ID : XVID
Codec ID/Hint : XviD
Duration : 1h 58mn
Bit rate : 1 011 Kbps
Width : 672 pixels
Height : 286 pixels
Display aspect ratio : 2.35:1
Frame rate : 23.976 fps
Color space : YUV
Chroma subsampling : 4:2:0
Bit depth : 8 bits
Scan type : Progressive
Bits/(Pixel*Frame) : 0.220
Stream size : 855 MiB (69%)
Writing library : XviD 1.2.1 (UTC 2008-12-04)

Audio
ID : 1
Format : AC-3
Format/Info : Audio Coding 3
Mode extension : CM (complete main)
Codec ID : 2000
Duration : 1h 58mn
Bit rate mode : Constant
Bit rate : 448 Kbps
Channel(s) : 6 channels
Channel positions : Front: L C R, Side: L R, LFE
Sampling rate : 48.0 KHz
Bit depth : 16 bits
Stream size : 379 MiB (31%)
Alignment : Split accross interleaves
Interleave, duration : 42 ms (1.00 video frame)
Interleave, preload duration : 500 ms

 
http://www.imdb.com/title/tt1126591/

Users: 6.2/10 (4,637 votes) 106 reviews | Critics: 128 reviews Metascore: 48/100 (based on 38 reviews from Metacritic.com)

A small-town girl ventures to Los Angeles and finds her place in a neo-burlesque club run by a former dancer.
Director:
Steve Antin
Writer:
Steve Antin
Stars:
Cher, Christina Aguilera and Alan Cumming
